<svg width="24" height="24" viewBox="0 0 24 24" fill="none" xmlns="http://www.w3.org/2000/svg">
<rect width="7.56126" height="1.89031" transform="matrix(0.713342 0.700816 -0.713342 0.700816 18.6062 17.3762)" fill="#333333"/>
<path d="M20.9303 10.7726C20.9303 16.1533 16.4855 20.5452 10.9652 20.5452C5.44478 20.5452 1 16.1533 1 10.7726C1 5.39198 5.44478 1 10.9652 1C16.4855 1 20.9303 5.39198 20.9303 10.7726Z" stroke="#333333" stroke-width="2"/>
<path d="M0 0V-1H-1V0H0ZM24 0H25V-1H24V0ZM24 24V25H25V24H24ZM0 24H-1V25H0V24ZM0 1H24V-1H0V1ZM23 0V24H25V0H23ZM24 23H0V25H24V23ZM1 24V0H-1V24H1Z" fill="black"/>
</svg>
