<svg width="72" height="72" viewBox="0 0 72 72" fill="none" xmlns="http://www.w3.org/2000/svg">
<g clip-path="url(#clip0)" filter="url(#filter0_d)">
<path d="M41.95 58.4074H24.2875C15.375 58.4074 8.125 50.9308 8.125 41.7398V25.9359C8.125 24.9047 8.9375 24.0797 9.925 24.0797C10.9125 24.0797 11.725 24.9176 11.725 25.9359V41.7527C11.725 48.8941 17.35 54.6949 24.275 54.6949H41.9375C42.9375 54.6949 43.7375 55.5328 43.7375 56.5512C43.75 57.5824 42.95 58.4074 41.95 58.4074Z" fill="#2D527C"/>
<path d="M52.4625 57.5824C51.7125 57.5824 51.025 57.1055 50.7625 56.332C50.4375 55.3652 50.925 54.3082 51.8625 53.9601C56.8875 52.1426 60.2625 47.2312 60.2625 41.7398V39.8707C60.2625 38.8394 61.075 38.0144 62.0625 38.0144C63.05 38.0144 63.8625 38.8523 63.8625 39.8707V41.7398C63.8625 48.8039 59.525 55.1332 53.05 57.4664C52.8625 57.5437 52.6625 57.5824 52.4625 57.5824Z" fill="#2D527C"/>
<path d="M62.5875 32.0719H9.4125C7.425 32.0719 5.8125 30.409 5.8125 28.3594C5.8125 26.3098 7.425 24.6469 9.4125 24.6469H62.6C64.5875 24.6469 66.2 26.3098 66.2 28.3594C66.2 30.409 64.5875 32.0719 62.5875 32.0719Z" fill="#CEE8FA"/>
<path d="M62.5875 33.9281H9.4125C6.425 33.9281 4 31.4274 4 28.3465C4 25.2656 6.425 22.7649 9.4125 22.7649H62.6C65.5875 22.7649 68.0125 25.2656 68.0125 28.3465C68.0125 31.4274 65.575 33.9281 62.5875 33.9281ZM9.4125 26.4903C8.4125 26.4903 7.6125 27.3281 7.6125 28.3465C7.6125 29.3649 8.425 30.2027 9.4125 30.2027H62.6C63.6 30.2027 64.4 29.3649 64.4 28.3465C64.4 27.3281 63.5875 26.4903 62.6 26.4903H9.4125Z" fill="#2D527C"/>
<path d="M18.2375 61.9008C19.9772 61.9008 21.3875 60.4464 21.3875 58.6523C21.3875 56.8582 19.9772 55.4039 18.2375 55.4039C16.4978 55.4039 15.0875 56.8582 15.0875 58.6523C15.0875 60.4464 16.4978 61.9008 18.2375 61.9008Z" fill="#CEE8FA"/>
<path d="M18.2375 63.7699C15.5 63.7699 13.275 61.4754 13.275 58.6523C13.275 55.8293 15.5 53.5347 18.2375 53.5347C20.975 53.5347 23.2 55.8293 23.2 58.6523C23.2 61.4754 20.975 63.7699 18.2375 63.7699ZM18.2375 57.2601C17.4875 57.2601 16.8875 57.8918 16.8875 58.6523C16.8875 59.4129 17.5 60.0445 18.2375 60.0445C18.975 60.0445 19.5875 59.4129 19.5875 58.6523C19.5875 57.8918 18.9875 57.2601 18.2375 57.2601Z" fill="#2D527C"/>
<path d="M53.7626 61.9008C55.5023 61.9008 56.9126 60.4464 56.9126 58.6523C56.9126 56.8582 55.5023 55.4039 53.7626 55.4039C52.0229 55.4039 50.6125 56.8582 50.6125 58.6523C50.6125 60.4464 52.0229 61.9008 53.7626 61.9008Z" fill="#CEE8FA"/>
<path d="M53.7626 63.7699C51.0251 63.7699 48.8 61.4754 48.8 58.6523C48.8 55.8293 51.0251 53.5347 53.7626 53.5347C56.5001 53.5347 58.7251 55.8293 58.7251 58.6523C58.7251 61.4754 56.4876 63.7699 53.7626 63.7699ZM53.7626 57.2601C53.0126 57.2601 52.4126 57.8918 52.4126 58.6523C52.4126 59.4129 53.0251 60.0445 53.7626 60.0445C54.5001 60.0445 55.1126 59.4129 55.1126 58.6523C55.1126 57.8918 54.5001 57.2601 53.7626 57.2601Z" fill="#2D527C"/>
<path d="M44.425 11.434H27.575C26.575 11.434 25.775 10.5961 25.775 9.57773C25.775 8.55937 26.5875 7.72148 27.575 7.72148H44.4375C45.4375 7.72148 46.2375 8.55937 46.2375 9.57773C46.2375 10.5961 45.425 11.434 44.425 11.434Z" fill="#F0BF5F"/>
<path d="M45.0125 15.0562C44.0125 15.0562 43.2125 14.2183 43.2125 13.2V4.08631C43.2125 3.05506 44.025 2.23006 45.0125 2.23006C46 2.23006 46.8125 3.06795 46.8125 4.08631V13.2C46.8125 14.2312 46.0125 15.0562 45.0125 15.0562Z" fill="#F0BF5F"/>
<path d="M48.2625 5.95562H41.775C40.775 5.95562 39.975 5.11773 39.975 4.09937C39.975 3.08101 40.7875 2.24312 41.775 2.24312H48.2625C49.2625 2.24312 50.0625 3.08101 50.0625 4.09937C50.0625 5.11773 49.25 5.95562 48.2625 5.95562Z" fill="#F0BF5F"/>
<path d="M26.9875 15.0562C25.9875 15.0562 25.1875 14.2183 25.1875 13.2V4.08631C25.1875 3.05506 26 2.23006 26.9875 2.23006C27.975 2.23006 28.7875 3.06795 28.7875 4.08631V13.2C28.7875 14.2312 27.9875 15.0562 26.9875 15.0562Z" fill="#F0BF5F"/>
<path d="M30.225 5.95748H23.7375C22.7375 5.95748 21.9375 5.11959 21.9375 4.10123C21.9375 3.08287 22.75 2.24498 23.7375 2.24498H30.225C31.225 2.24498 32.025 3.08287 32.025 4.10123C32.025 5.11959 31.225 5.95748 30.225 5.95748Z" fill="#F0BF5F"/>
<path d="M36 19.3359C35 19.3359 34.2 18.498 34.2 17.4797V9.75818C34.2 8.72693 35.0125 7.90193 36 7.90193C36.9875 7.90193 37.7999 8.73982 37.7999 9.75818V17.4797C37.7999 18.498 37 19.3359 36 19.3359Z" fill="#F0BF5F"/>
<path d="M28.4625 43.1578H18.75C17.525 43.1578 16.525 42.1266 16.525 40.8633V24.6211H30.675V40.8633C30.675 42.1395 29.6875 43.1578 28.4625 43.1578Z" fill="#CEE8FA"/>
<path d="M28.4625 45.027H18.75C16.5375 45.027 14.725 43.1707 14.725 40.8762V24.634C14.725 23.6028 15.5375 22.7778 16.525 22.7778H30.675C31.675 22.7778 32.475 23.6156 32.475 24.634V40.8762C32.4875 43.1578 30.675 45.027 28.4625 45.027ZM18.3375 26.4903V40.8762C18.3375 41.1082 18.525 41.3016 18.75 41.3016H28.4625C28.6875 41.3016 28.875 41.1082 28.875 40.8762V26.4903H18.3375Z" fill="#2D527C"/>
</g>
<defs>
<filter id="filter0_d" x="0" y="0" width="72" height="74" filterUnits="userSpaceOnUse" color-interpolation-filters="sRGB">
<feFlood flood-opacity="0" result="BackgroundImageFix"/>
<feColorMatrix in="SourceAlpha" type="matrix" values="0 0 0 0 0 0 0 0 0 0 0 0 0 0 0 0 0 0 127 0" result="hardAlpha"/>
<feOffset dy="4"/>
<feGaussianBlur stdDeviation="2"/>
<feComposite in2="hardAlpha" operator="out"/>
<feColorMatrix type="matrix" values="0 0 0 0 0 0 0 0 0 0 0 0 0 0 0 0 0 0 0.25 0"/>
<feBlend mode="normal" in2="BackgroundImageFix" result="effect1_dropShadow"/>
<feBlend mode="normal" in="SourceGraphic" in2="effect1_dropShadow" result="shape"/>
</filter>
<clipPath id="clip0">
<rect width="64" height="66" fill="white" transform="translate(4)"/>
</clipPath>
</defs>
</svg>
